# xmcd
#
# Track frame offsets:
#	150
#	19251
#	35685
#	55485
#	72857
#	90591
#	107226
#	122925
#	137504
#	154446
#	171641
#	188456
#	204762
#	219429
#	240813
#	257668
#	274808
#	287020
#	302016
#	317245
#
# Disc length: 4490 seconds
#
# Revision: 0
# Processed by: cddbd v1.5.2PL0 Copyright (c) Steve Scherf et al.
# Submitted via: EZCDAudioConverter 3.1.0.1
#
DISCID=24118814
DTITLE=Nu Urban Traxx Volume 227 US 
DYEAR=2016
DGENRE=blues
TTITLE0=Young Thug and Travis Scott ft. Quavo - Pick Up the Phone
TTITLE1=Juicy J ft. Travi$ Scott - No English
TTITLE2=Drake ft. Rihanna - Too Good
TTITLE3=Usher ft. Young Thug - No Limit
TTITLE4=Partynextdoor ft. Drake - Come And See Me
TTITLE5=DJ Khaled ft. Jay Z and Future - I Got the Keys
TTITLE6=Joey Bada$$ - Devastated
TTITLE7=DJ Mustard ft. Nicki Minaj and Jeremih - Don't Hurt Me
TTITLE8=DJ Dram ft. Lil Yachty - Broccoli
TTITLE9=Tory Lanez - Luv
TTITLE10=French Montana ft. Kodak Black - Lock Jaw
TTITLE11=The Game ft. Jeremih - All Eyez
TTITLE12=Lil Durk ft. Yo Gotti - Money Walk
TTITLE13=Rich Gang ft. Jacquees, J-Soul, Ralo Stylz, Derez Lenard and Birdman 
TTITLE13=/ Pull Up
TTITLE14=M City J.r. - Addicted To My Ex
TTITLE15=Candice Boyd ft. French Montana - Damn Good Time
TTITLE16=Young Thug and Travis Scott ft. Quavo - Gangster Sh-t
TTITLE17=Lil Uzi Vert - Money Longer
TTITLE18=Bryson Tiller - Sorry Not Sorry
TTITLE19=Snoop Dogg ft. Jeremih - Point Seen Money Gone
EXTD=
EXTT0=
EXTT1=
EXTT2=
EXTT3=
EXTT4=
EXTT5=
EXTT6=
EXTT7=
EXTT8=
EXTT9=
EXTT10=
EXTT11=
EXTT12=
EXTT13=
EXTT14=
EXTT15=
EXTT16=
EXTT17=
EXTT18=
EXTT19=
PLAYORDER=
